<?xml version="1.0" encoding="utf-8"?>
<svg xmlns="http://www.w3.org/2000/svg" height="70" width="70" viewBox="0 0 70 70">
  <g>
    <path id="path1" transform="rotate(0,35,35) translate(16.0902468562126,16) scale(1.1875,1.1875)  " fill="#94ABB7" d="M10.623993,20.399994C10.623993,20.399994,11.623993,26,15.924013,25.700012L16.123995,25.700012C20.52402,25.800018,21.224002,20.399994,21.224002,20.399994L28.82401,22.800018C33.024022,24.899994,31.623999,32,31.623999,32L0.22399694,32C0.22399715,32,-1.175997,24.899994,3.0240162,22.800018z M20.724002,7.5C21.123995,7.5 21.424014,7.6000061 21.724002,7.7000122 21.924014,7.8000183 22.224002,8 22.524022,8.3000183L22.724003,8.5C22.82401,9.8999939 22.623997,10.899994 22.623997,10.899994 24.82401,12.600006 21.924014,15 21.924014,15 21.224002,17.200012 20.324008,18.100006 20.324008,18.100006 19.224002,21.600006 15.924013,20.899994 15.924013,20.899994 15.724001,20.899994 12.724001,21.5 11.623993,18.100006 11.623993,18.100006 10.724,17.200012 10.024018,15 10.024018,15 7.1239925,12.600006 9.3240057,10.899994 9.3240057,10.899994 9.1239935,9.8999939 9.2239996,8.7000122L9.7239996,8.3000183C9.7239996,8.2000122 9.8240057,8.1000061 9.9240118,8 10.324006,7.8000183 10.724,7.7000122 11.224,7.7000122 11.924012,7.7000122 12.623994,7.8999939 13.324007,8.1000061 14.123994,8.3999939 15.024019,8.6000061 16.02402,8.6000061 16.924014,8.6000061 17.824008,8.3000183 18.623995,8 19.324008,7.7000122 20.02402,7.5 20.724002,7.5z M4.0240165,0L28.024022,0 28.024022,1.7000122 25.424016,1.7000122 25.424016,3.3999939C25.724003,3.6000061 25.924016,3.8000183 25.924016,4.2000122 25.924016,4.5 25.724003,4.8000183 25.424016,5L25.424016,6.5 24.32401,6.5 24.32401,5C24.024022,4.8000183 23.82401,4.6000061 23.82401,4.2000122 23.82401,3.8999939 24.024022,3.6000061 24.32401,3.3999939L24.32401,1.7000122 22.82401,1.7000122 22.82401,7.3999939C22.623997,7.2000122 22.324008,7 22.02402,6.8000183 21.623995,6.6000061 21.224002,6.5 20.724002,6.5 19.924014,6.5 19.224002,6.8000183 18.424014,7 17.623995,7.3000183 16.824008,7.6000061 16.02402,7.6000061 15.224001,7.6000061 14.324007,7.3999939 13.524019,7.1000061 12.724001,6.8999939 11.924012,6.7000122 11.224,6.7000122 10.623993,6.7000122 10.024018,6.8999939 9.5240179,7.2000122 9.3240057,7.2000122 9.2239996,7.3000183 9.1239935,7.3999939L9.1239935,1.7000122 4.0240165,1.7000122z" />
  </g>
</svg>

