<?xml version="1.0" encoding="utf-8"?>
<svg xmlns="http://www.w3.org/2000/svg" height="32" width="32" viewBox="0 0 32 32">
  <g>
    <path id="path1" transform="rotate(0,16,16) translate(1.93753213163813,1) scale(0.937529449344862,0.937529449344862)  " fill="#000000" d="M15.146127,9.6769704C15.402001,9.6769699 15.658001,9.7747182 15.853501,9.9702138 16.2435,10.360206 16.2435,10.993194 15.853501,11.384186L8.0105126,19.226026 4.2505183,15.466102C3.8605194,15.076111 3.8605194,14.443123 4.2505183,14.052132 4.6415181,13.662139 5.2745171,13.662139 5.6645164,14.052132L8.0105126,16.398084 14.439503,9.9702138C14.634502,9.7747182,14.890252,9.6769699,15.146127,9.6769704z M20.037012,4.2004362L20.037012,25C20.037012,26.653999,18.675012,28,17.00001,28L13.595171,28 18.268975,29.921972C18.515985,30.023962 18.787987,30.022985 19.031975,29.918981 19.283989,29.812963 19.479972,29.611975 19.583976,29.353002L27.921973,8.5650023C28.13697,8.0300297,27.885962,7.4199842,27.362954,7.2050184z M3.0370016,2.0000001C2.4650011,2,2.000001,2.4490001,2.000001,3.0000001L2.000001,25C2.000001,25.551,2.4650011,26,3.0370016,26L17.00001,26C17.572011,26,18.037011,25.551,18.037011,25L18.037011,3.0000001C18.037011,2.4490001,17.572011,2,17.00001,2.0000001z M3.0370016,0L17.00001,0C18.256261,0,19.33645,0.75712502,19.798027,1.8334685L19.849022,1.9610151 28.122962,5.3540074C29.658971,5.9860262,30.400973,7.7600106,29.778964,9.3099965L21.43996,30.097998C21.135975,30.855991 20.556966,31.446995 19.808982,31.761997 19.434989,31.919954 19.040977,31.998995 18.646966,31.998995 18.26098,31.998995 17.875971,31.922945 17.507991,31.771946L8.335465,28 3.0370016,28C1.3620005,28,0,26.653999,0,25L0,3.0000001C0,1.346,1.3620005,0,3.0370016,0z" />
  </g>
</svg>

