<?xml version="1.0" encoding="utf-8"?>
<svg xmlns="http://www.w3.org/2000/svg" height="32" width="32" viewBox="0 0 32 32">
  <g>
    <path id="path1" transform="rotate(0,16,16) translate(1,1.08905023336411) scale(0.9375,0.9375)  " fill="#000000" d="M6,25.810019L15,25.810019 15,27.810019 6,27.810019z M6,22.810019L27,22.810019 27,24.810019 6,24.810019z M21.775679,13.226029L21.662142,13.337637C21.089985,13.876322,20.43578,14.32937,19.720411,14.675972L19.56917,14.745174 20.797003,16.338017 21.315004,14.653018 22.935009,14.689018z M10.546233,12.851014L9.4039955,14.706045 11.16099,14.586044 11.709989,16.114046 12.660653,14.521925 12.658792,14.520972C11.861687,14.090583,11.148364,13.525045,10.550002,12.855419z M2,8.8100271L2,29.810027 30,29.810027 30,8.8100271 24.017139,8.8100271 24.004503,8.8997221C23.862095,9.8256052,23.55406,10.697878,23.111578,11.485478L23.041584,11.603911 27.147022,16.783016 22.782009,16.686016 21.571005,20.617012 17.517548,15.35854 17.411715,15.375628C17.061655,15.424013 16.704201,15.449025 16.340992,15.449025 15.735644,15.449025 15.146277,15.379548 14.580503,15.248178L14.559656,15.24284 11.25799,20.770053 9.7899942,16.684048 5.6620073,16.965048 9.3286934,11.014291 9.2642384,10.879387C8.9842567,10.258391,8.7842855,9.5941343,8.6774788,8.8997221L8.6648436,8.8100271z M16.340992,2.0000033C13.168987,2.0000033 10.587984,4.5680075 10.587984,7.7250128 10.587984,10.881018 13.168987,13.449022 16.340992,13.449022 19.512995,13.449022 22.093998,10.881018 22.093998,7.7250128 22.093998,4.5680075 19.512995,2.0000033 16.340992,2.0000033z M16.340992,0C20.282013,0,23.545698,2.9447472,24.031593,6.7424035L24.039375,6.8100271 32,6.8100271 32,31.810027 0,31.810027 0,6.8100271 8.6426067,6.8100271 8.6503878,6.7424035C9.1362848,2.9447472,12.399971,0,16.340992,0z" />
  </g>
</svg>

