<?xml version="1.0" encoding="utf-8"?>
<svg xmlns="http://www.w3.org/2000/svg" height="32" width="32" viewBox="0 0 32 32">
  <g>
    <path id="path1" transform="rotate(0,16,16) translate(1,2.70108914375305) scale(0.9375,0.9375)  " fill="#000000" d="M3.9999905,15.500003L14.99999,15.500003 14.99999,16.500003 3.9999905,16.500003z M24,11C22.346,11 21,12.346 21,14 21,15.654 22.346,17 24,17 25.654,17 27,15.654 27,14 27,12.346 25.654,11 24,11z M3.9999905,10.500003L14.99999,10.500003 14.99999,11.500003 3.9999905,11.500003z M24,9C26.757,9 29,11.243 29,14 29,16.240062 27.519269,18.140805 25.485204,18.774831L25.397333,18.79984 28.929004,27.629005 27.072007,28.37101 24.000503,20.69226 20.929,28.371006 19.071999,27.629006 22.603205,18.801002 22.580997,18.79496C20.512938,18.181887 19,16.264294 19,14 19,11.243 21.243,9 24,9z M3.9999905,5.5000029L21.99999,5.5000029 21.99999,6.5000029 3.9999905,6.5000029z M0,0L32,0 32,8 30,8 30,2 2,2 2,21 17,21 17,23 0,23z" />
  </g>
</svg>

